<?xml version="1.0" standalone="no"?>
<!DOCTYPE svg PUBLIC "-//W3C//DTD SVG 20010904//EN"
 "http://www.w3.org/TR/2001/REC-SVG-20010904/DTD/svg10.dtd">
<svg version="1.0" xmlns="http://www.w3.org/2000/svg"
 width="200.000000pt" height="200.000000pt" viewBox="0 0 200.000000 200.000000"
 preserveAspectRatio="xMidYMid meet">

<g transform="translate(0.000000,200.000000) scale(0.100000,-0.100000)"
fill="#000000" stroke="none">
<path d="M989 1727 c-21 -11 -25 -21 -29 -87 -3 -41 -11 -85 -18 -97 -17 -30
-81 -66 -167 -93 -129 -42 -191 -84 -227 -153 -21 -41 -27 -113 -14 -154 6
-19 1 -24 -41 -43 -112 -49 -159 -148 -118 -247 18 -42 18 -43 4 -43 -22 0
-90 -63 -115 -106 -38 -65 -38 -153 0 -218 70 -120 218 -164 586 -173 530 -14
780 90 780 325 0 109 -47 185 -155 247 -16 10 -16 14 -4 35 21 40 17 157 -9
206 -24 47 -69 88 -119 109 -30 13 -33 18 -26 37 4 13 8 52 7 88 -2 109 -66
215 -186 308 -75 57 -117 74 -149 59z m149 -177 c71 -70 102 -133 102 -208 0
-68 -19 -96 -88 -131 -41 -21 -55 -41 -46 -65 10 -26 36 -26 94 0 52 23 63 25
94 14 19 -6 51 -29 70 -51 33 -36 36 -44 36 -101 0 -60 -1 -63 -44 -104 -71
-68 -201 -107 -411 -125 -139 -11 -281 -3 -365 21 -159 47 -183 168 -45 231
33 15 65 19 186 19 158 0 174 5 167 52 -3 22 -6 23 -123 26 -138 3 -155 12
-155 84 0 34 7 47 43 83 33 33 60 48 127 70 109 36 157 59 198 99 42 38 62 76
62 114 0 56 18 51 98 -28z m300 -744 c37 -19 89 -75 101 -109 17 -44 13 -109
-8 -144 -24 -39 -90 -84 -161 -110 -104 -39 -192 -48 -450 -48 -347 1 -486 29
-565 116 -30 34 -35 46 -35 89 0 43 5 55 35 89 55 61 84 68 158 43 210 -73
669 -36 839 68 39 24 50 25 86 6z"/>
</g>
</svg>
