<?xml version="1.0" standalone="no"?>
<!DOCTYPE svg PUBLIC "-//W3C//DTD SVG 20010904//EN"
 "http://www.w3.org/TR/2001/REC-SVG-20010904/DTD/svg10.dtd">
<svg version="1.0" xmlns="http://www.w3.org/2000/svg"
 width="200.000000pt" height="200.000000pt" viewBox="0 0 200.000000 200.000000"
 preserveAspectRatio="xMidYMid meet">

<g transform="translate(0.000000,200.000000) scale(0.100000,-0.100000)"
fill="#000000" stroke="none">
<path d="M1306 1689 c-99 -23 -141 -59 -504 -422 -412 -413 -407 -406 -407
-572 0 -91 3 -106 31 -165 94 -198 326 -282 522 -188 34 16 144 118 408 381
386 383 402 402 426 521 15 77 3 154 -38 236 -82 163 -263 250 -438 209z m219
-112 c149 -76 209 -244 141 -392 -21 -46 -59 -91 -184 -217 l-157 -159 -213
214 -213 213 161 159 c194 193 235 219 345 212 50 -3 85 -11 120 -30z m-474
-620 l214 -208 -159 -155 c-188 -182 -217 -199 -331 -199 -70 0 -87 4 -134 30
-95 53 -152 142 -159 250 -3 56 1 82 19 130 19 52 42 80 172 212 83 85 154
152 157 151 4 -2 103 -97 221 -211z"/>
</g>
</svg>
