<?xml version="1.0" standalone="no"?>
<!DOCTYPE svg PUBLIC "-//W3C//DTD SVG 20010904//EN"
 "http://www.w3.org/TR/2001/REC-SVG-20010904/DTD/svg10.dtd">
<svg version="1.0" xmlns="http://www.w3.org/2000/svg"
 width="200.000000pt" height="200.000000pt" viewBox="0 0 200.000000 200.000000"
 preserveAspectRatio="xMidYMid meet">

<g transform="translate(0.000000,200.000000) scale(0.100000,-0.100000)"
fill="#000000" stroke="none">
<path d="M1120 1671 c-123 -38 -201 -133 -224 -272 -6 -36 -7 -36 -64 -42 -80
-9 -120 -22 -174 -56 -57 -36 -95 -91 -125 -180 -17 -50 -27 -67 -44 -71 -48
-12 -51 -62 -5 -80 34 -12 876 -13 909 -1 47 18 44 76 -5 83 -15 2 -25 17 -37
58 -24 76 -43 109 -88 152 -52 50 -137 87 -217 95 -36 3 -66 10 -66 15 0 37
28 104 58 139 64 75 82 79 369 79 138 0 259 3 267 6 26 10 38 41 26 64 -10 19
-20 20 -283 19 -150 0 -283 -4 -297 -8z m25 -433 c60 -31 77 -49 104 -108 39
-85 63 -79 -309 -80 -327 0 -330 0 -330 20 0 35 48 117 85 145 59 46 106 55
260 52 128 -3 144 -5 190 -29z"/>
<path d="M602 828 c-7 -7 -12 -42 -12 -88 0 -78 9 -100 41 -100 31 0 43 29 44
106 0 56 -4 77 -15 84 -21 13 -44 12 -58 -2z"/>
<path d="M906 824 c-12 -11 -16 -35 -16 -84 0 -72 14 -100 49 -100 32 0 41 22
41 100 0 46 -5 81 -12 88 -17 17 -44 15 -62 -4z"/>
<path d="M1212 831 c-9 -5 -12 -31 -10 -91 2 -66 7 -85 21 -94 12 -8 22 -8 35
0 13 9 18 28 20 88 3 80 -6 106 -37 106 -9 0 -22 -4 -29 -9z"/>
<path d="M756 494 c-24 -24 -22 -155 2 -177 10 -10 24 -17 30 -17 24 0 42 45
42 105 0 88 -34 129 -74 89z"/>
<path d="M1058 499 c-15 -8 -18 -24 -18 -89 0 -79 12 -110 44 -110 27 0 36 26
36 105 0 98 -15 122 -62 94z"/>
</g>
</svg>
