<?xml version="1.0" standalone="no"?>
<!DOCTYPE svg PUBLIC "-//W3C//DTD SVG 20010904//EN"
 "http://www.w3.org/TR/2001/REC-SVG-20010904/DTD/svg10.dtd">
<svg version="1.0" xmlns="http://www.w3.org/2000/svg"
 width="200.000000pt" height="200.000000pt" viewBox="0 0 200.000000 200.000000"
 preserveAspectRatio="xMidYMid meet">

<g transform="translate(0.000000,200.000000) scale(0.100000,-0.100000)"
fill="#000000" stroke="none">
<path d="M887 1654 c-196 -206 -362 -502 -388 -691 -54 -382 343 -658 699
-487 172 83 276 266 258 454 -18 198 -186 505 -403 738 -68 72 -86 71 -166
-14z m158 -115 c174 -205 307 -459 322 -613 33 -360 -426 -556 -678 -289 -95
100 -127 221 -95 358 20 85 95 242 167 351 64 96 200 264 214 264 6 0 37 -32
70 -71z"/>
<path d="M1460 594 c-42 -36 -71 -95 -77 -160 -5 -51 -4 -55 30 -89 31 -31 41
-35 86 -35 42 0 56 5 83 29 30 26 33 35 32 83 0 62 -34 137 -77 174 -36 30
-39 30 -77 -2z m70 -130 c19 -57 -8 -97 -51 -74 -24 13 -24 48 -2 94 19 41 35
35 53 -20z"/>
</g>
</svg>
