<?xml version="1.0" standalone="no"?>
<!DOCTYPE svg PUBLIC "-//W3C//DTD SVG 20010904//EN"
 "http://www.w3.org/TR/2001/REC-SVG-20010904/DTD/svg10.dtd">
<svg version="1.0" xmlns="http://www.w3.org/2000/svg"
 width="200.000000pt" height="200.000000pt" viewBox="0 0 200.000000 200.000000"
 preserveAspectRatio="xMidYMid meet">

<g transform="translate(0.000000,200.000000) scale(0.100000,-0.100000)"
fill="#000000" stroke="none">
<path d="M395 1701 c-22 -10 -52 -31 -67 -47 -59 -63 -58 -53 -58 -654 0 -522
1 -553 19 -588 23 -44 62 -82 111 -108 33 -18 68 -19 615 -19 575 0 580 0 620
22 47 25 86 65 109 110 14 28 16 96 16 583 0 601 1 591 -58 654 -15 16 -45 37
-67 47 -37 17 -77 19 -620 19 -543 0 -583 -2 -620 -19z m1212 -91 c65 -39 63
-24 63 -614 l0 -534 -27 -33 c-51 -60 -41 -59 -628 -59 -587 0 -577 -1 -628
59 l-27 33 0 536 c0 410 3 543 13 562 7 13 28 35 46 47 l34 23 561 0 c539 0
562 -1 593 -20z"/>
<path d="M870 1502 c-73 -19 -167 -69 -186 -98 -11 -16 -4 -40 47 -164 33 -80
69 -153 80 -162 18 -16 44 -18 199 -18 98 0 189 4 202 9 18 7 37 42 86 163 34
85 60 162 57 170 -8 19 -98 72 -160 94 -75 25 -243 29 -325 6z m323 -105 c31
-14 57 -30 57 -34 0 -4 -18 -54 -41 -110 l-41 -103 -54 0 -54 0 0 68 c0 70
-10 92 -42 92 -31 0 -50 -44 -46 -105 l3 -55 -56 0 -56 0 -36 93 c-20 50 -39
100 -42 109 -5 12 2 21 24 32 103 54 283 60 384 13z"/>
</g>
</svg>
